<?xml version="1.0" encoding="UTF-8"?>
<svg width="120" height="120" viewBox="0 0 120 120" fill="none" xmlns="http://www.w3.org/2000/svg">
  <defs>
    <linearGradient id="leafGradient" x1="36" y1="36" x2="84" y2="84" gradientUnits="userSpaceOnUse">
      <stop offset="0" stop-color="#6CA784"/>
      <stop offset="1" stop-color="#3E7B58"/>
    </linearGradient>
    <linearGradient id="ringGradient" x1="10" y1="10" x2="110" y2="110" gradientUnits="userSpaceOnUse">
      <stop offset="0" stop-color="#C6DFC4"/>
      <stop offset="1" stop-color="#8BB593"/>
    </linearGradient>
  </defs>
  <circle cx="60" cy="60" r="55" stroke="url(#ringGradient)" stroke-width="10" fill="#F6F7F2"/>
  <path
    d="M60 90C42 90 36 72 36 60C36 45 48 30 63 30C75 30 84 40 84 52C84 69 66 76 60 90Z"
    fill="url(#leafGradient)"
  />
  <path
    d="M60 82C52 82 47 74 46 68C45.5 62 50 54 57 50C63 46 70 46 72 52C74 58 71.5 62 68 64C63 67 60 74 60 82Z"
    fill="#F6F7F2"
    fill-opacity="0.35"
  />
</svg>
